Kwon-taek Im: Jagko (1980) 
http://www.imdb.com/title/tt0081607

Subtitles: Korean, English, Japanese

Video
ID                                       : 1
Format                                   : AVC
Format/Info                              : Advanced Video Codec
Format profile                           : Main@L2.1
Format settings, CABAC                   : Yes
Format settings, ReFrames                : 4 frames
Codec ID                                 : avc1
Codec ID/Info                            : Advanced Video Coding
Duration                                 : 1h 43mn
Bit rate mode                            : Variable
Bit rate                                 : 1 600 Kbps
Width                                    : 720 pixels
Height                                   : 272 pixels
Display aspect ratio                     : 2.647
Frame rate mode                          : Variable
Frame rate                               : 23.976 fps
Minimum frame rate                       : 23.968 fps
Maximum frame rate                       : 23.981 fps
Color space                              : YUV
Chroma subsampling                       : 4:2:0
Bit depth                                : 8 bits
Scan type                                : Progressive
Bits/(Pixel*Frame)                       : 0.341
Stream size                              : 1.15 GiB (79%)
Writing library                          : x264 core 120
 
Audio #1 (Main Audio)
ID                                       : 2
Format                                   : AAC
Format/Info                              : Advanced Audio Codec
Format profile                           : LC
Codec ID                                 : 40
Duration                                 : 1h 43mn
Bit rate mode                            : Variable
Bit rate                                 : 127 Kbps
Maximum bit rate                         : 160 Kbps
Channel(s)                               : 1 channel
Channel positions                        : Front: C
Sampling rate                            : 48.0 KHz
Compression mode                         : Lossy
Delay relative to video                  : 83ms
Stream size                              : 93.5 MiB (6%)
Language                                 : Korean
 
Audio #2 (Audio Commentary)
ID                                       : 3
Format                                   : AAC
Format/Info                              : Advanced Audio Codec
Format profile                           : LC
Codec ID                                 : 40
Duration                                 : 1h 43mn
Bit rate mode                            : Variable
Bit rate                                 : 128 Kbps
Maximum bit rate                         : 168 Kbps
Channel(s)                               : 1 channel
Channel positions                        : Front: C
Sampling rate                            : 44.1 KHz
Compression mode                         : Lossy
Delay relative to video                  : 83ms
Stream size                              : 94.4 MiB (6%)
Language                                 : Korean
 
Audio #3 (Audio Commentary)
ID                                       : 4
Format                                   : AAC
Format/Info                              : Advanced Audio Codec
Format profile                           : LC
Codec ID                                 : 40
Duration                                 : 1h 43mn
Bit rate mode                            : Variable
Bit rate                                 : 127 Kbps
Maximum bit rate                         : 177 Kbps
Channel(s)                               : 1 channel
Channel positions                        : Front: C
Sampling rate                            : 44.1 KHz
Compression mode                         : Lossy
Delay relative to video                  : 83ms
Stream size                              : 93.5 MiB (6%)
Language                                 : Korean

